<?xml version="1.0" encoding="iso-8859-1"?>
<!-- Generator: Adobe Illustrator 18.0.0, SVG Export Plug-In . SVG Version: 6.00 Build 0)  -->
<!DOCTYPE svg PUBLIC "-//W3C//DTD SVG 1.1//EN" "http://www.w3.org/Graphics/SVG/1.1/DTD/svg11.dtd">
<svg version="1.1" id="Capa_1" xmlns="http://www.w3.org/2000/svg" xmlns:xlink="http://www.w3.org/1999/xlink" x="0px" y="0px"
	 viewBox="0 0 472.029 472.029" style="enable-background:new 0 0 472.029 472.029;" xml:space="preserve">
<path d="M433.453,195.383h-5.493c-3.427-20.087-21.985-35.108-55.313-44.705c-31.513-9.074-77.482-13.675-136.633-13.675
	s-105.121,4.601-136.633,13.675c-33.329,9.598-51.887,24.618-55.314,44.705h-5.492C17.306,195.383,0,212.688,0,233.959v4.112
	c0,21.271,17.306,38.576,38.576,38.576h5.492c3.427,20.087,21.984,35.108,55.314,44.705c31.512,9.074,77.482,13.675,136.633,13.675
	s105.12-4.601,136.632-13.675c33.329-9.598,51.887-24.618,55.314-44.705h5.493c21.271,0,38.576-17.305,38.576-38.576v-4.112
	C472.029,212.688,454.724,195.383,433.453,195.383z M103.256,164.131c30.252-8.711,74.919-13.128,132.759-13.128
	c57.839,0,102.506,4.417,132.759,13.128c25.969,7.479,40.994,17.971,44.808,31.252H58.447
	C62.261,182.101,77.286,171.609,103.256,164.131z M38.576,209.383h394.877c10.38,0,19.271,6.471,22.867,15.589l-4.675,4.942
	c-6.944,7.331-16.328,11.444-26.421,11.58c-0.174,0.002-0.345,0.003-0.518,0.003c-9.897,0-19.186-3.846-26.202-10.862
	c-9.646-9.647-22.474-14.959-36.116-14.959c-13.637,0-26.46,5.313-36.108,14.961l-0.856,0.856
	c-7.003,7.004-16.315,10.861-26.22,10.861c-9.903,0-19.213-3.856-26.212-10.859l-0.86-0.861
	c-19.912-19.903-52.314-19.903-72.232,0.003l-0.856,0.856c-7.003,7.004-16.313,10.861-26.216,10.861s-19.213-3.857-26.218-10.862
	l-0.858-0.858c-19.914-19.903-52.315-19.903-72.231,0.003l-0.855,0.856c-14.456,14.455-37.978,14.457-52.434,0l-5.05-5.05
	C18.363,216.557,27.645,209.383,38.576,209.383z M368.773,307.899c-30.253,8.711-74.919,13.128-132.759,13.128
	s-102.507-4.417-132.759-13.128c-25.97-7.478-40.995-17.971-44.809-31.251h355.134C409.768,289.928,394.742,300.421,368.773,307.899
	z M433.453,262.647H38.576c-10.9,0-20.159-7.134-23.368-16.977c20.017,15.5,48.99,14.085,67.355-4.28l0.854-0.855
	c14.456-14.449,37.978-14.45,52.436,0l0.856,0.856c19.917,19.915,52.318,19.914,72.233-0.001l0.854-0.855
	c14.457-14.449,37.98-14.449,52.434-0.003l0.857,0.858c9.645,9.649,22.47,14.963,36.114,14.963s26.472-5.313,36.121-14.963
	l0.855-0.856c7.003-7.002,16.311-10.859,26.208-10.859c9.903,0,19.215,3.856,26.217,10.859c9.834,9.834,22.944,15.144,36.808,14.958
	c11.861-0.16,23.001-4.318,31.962-11.803C454.825,254.541,445.072,262.647,433.453,262.647z"/>
<g>
</g>
<g>
</g>
<g>
</g>
<g>
</g>
<g>
</g>
<g>
</g>
<g>
</g>
<g>
</g>
<g>
</g>
<g>
</g>
<g>
</g>
<g>
</g>
<g>
</g>
<g>
</g>
<g>
</g>
</svg>
