<?xml version="1.0" encoding="iso-8859-1"?>
<!-- Generator: Adobe Illustrator 19.0.0, SVG Export Plug-In . SVG Version: 6.00 Build 0)  -->
<svg version="1.1" id="Layer_1" xmlns="http://www.w3.org/2000/svg" xmlns:xlink="http://www.w3.org/1999/xlink" x="0px" y="0px"
	 viewBox="0 0 511.999 511.999" style="enable-background:new 0 0 511.999 511.999;" xml:space="preserve">
<g>
	<g>
		<path d="M504.083,206.292h-11.375c-2.291-15.462-8.126-30.141-17.101-43.009c4.484-15.822,0.52-33.556-11.908-45.987
			c-1.484-1.485-3.498-2.319-5.598-2.319H458.1c-2.1,0-4.114,0.834-5.598,2.319l-13.726,13.726
			c-14.319-7.382-30.264-11.266-46.49-11.266c-11.476,0-22.694,1.893-33.414,5.633c-17.357-12.78-38.555-19.771-60.193-19.771
			c-6.006,0-12.019,0.532-17.919,1.583c-15.529-9.114-33.202-13.916-51.319-13.916c-21.696,0-42.268,6.719-59.696,19.427
			c-26.892,0.491-52.206,11.503-70.839,30.645l-20.715-20.715c-1.484-1.485-3.498-2.319-5.598-2.319c-2.1,0-4.114,0.834-5.598,2.319
			c-8.851,8.851-13.726,20.619-13.726,33.136c0,3.12,0.304,6.194,0.895,9.189c-13.352,10.686-23.102,25.046-28.065,41.325H7.917
			c-4.372,0-7.917,3.545-7.917,7.917c0,112.765,91.74,204.505,204.505,204.505h102.989c112.765,0,204.505-91.74,204.505-204.505
			C512,209.837,508.455,206.292,504.083,206.292z M467.195,179.647c4.62,8.293,7.812,17.285,9.464,26.646h-20.567
			c-1.861-4.508-4.076-8.837-6.661-12.952c5.253-2.312,10.087-5.593,14.267-9.772C464.953,182.314,466.113,181.001,467.195,179.647z
			 M457.377,134.815c6.911,11.875,5.287,27.396-4.875,37.558c-5.861,5.861-13.652,9.089-21.94,9.089
			c-5.58,0-10.934-1.463-15.626-4.207L457.377,134.815z M397.426,183.57c8.851,8.851,20.62,13.726,33.137,13.726c0,0,0,0,0.001,0
			c0.789,0,1.573-0.02,2.355-0.058c2.137,2.877,4.039,5.901,5.706,9.055h-95.108l-17.368-17.368
			c12.373-12.165,28.909-19.484,46.365-20.325c8.589-0.411,17.171,0.753,25.297,3.388l-0.385,0.385
			C394.333,175.465,394.333,180.478,397.426,183.57z M229.443,109.12c16.194,0,31.962,4.542,45.603,13.135
			c1.741,1.097,3.841,1.474,5.854,1.048c5.822-1.229,11.804-1.85,17.78-1.85c19.84,0,38.465,6.587,53.863,19.048
			c2.228,1.804,5.259,2.262,7.922,1.196c10.123-4.051,20.829-6.107,31.822-6.107c11.979,0,23.77,2.511,34.619,7.303l-16.811,16.811
			c-12.051-5.168-25.192-7.558-38.342-6.919c-21.395,1.029-41.66,10.013-56.801,24.944l-15.416-15.417
			c-1.484-1.485-3.498-2.319-5.598-2.319s-4.114,0.834-5.599,2.319c-11.629,11.632-16.073,28.459-12.424,43.982h-3.074
			c-1.31-17.119-6.884-33.401-16.327-47.749c4.53-7.21,7.161-15.727,7.162-24.852c0-2.1-0.834-4.114-2.318-5.599
			c-1.485-1.485-3.498-2.319-5.599-2.319H221.48c-7.912-4.467-16.373-7.833-25.146-10.03
			C206.707,111.387,217.885,109.12,229.443,109.12z M321.125,206.292H292.42c-3.239-8.717-2.359-18.481,2.252-26.452
			L321.125,206.292z M246.817,141.609c-3.509,13.287-15.631,23.111-30.004,23.111c-0.002,0-0.002,0-0.003,0
			c-8.286-0.001-16.078-3.228-21.937-9.087c-3.946-3.946-6.698-8.766-8.075-14.025H246.817z M171.623,128.52
			c0.084,0,0.169,0.004,0.253,0.004c-1.198,1.387-1.927,3.19-1.927,5.167c0,12.517,4.875,24.286,13.726,33.137
			c8.851,8.851,20.618,13.725,33.133,13.725h0.004c10.785,0,20.724-3.672,28.653-9.82c6.432,10.874,10.327,22.935,11.475,35.559
			h-68.914c-4.907-16.014-14.575-30.42-27.684-41.053c-12.087-9.803-26.696-16.028-42.065-18.093
			C133.306,135.167,152.005,128.52,171.623,128.52z M73.313,140.153l42.439,42.44c-11.875,6.914-27.395,5.29-37.558-4.875
			c-5.861-5.86-9.089-13.652-9.089-21.94C69.106,150.2,70.569,144.845,73.313,140.153z M60.327,180.516
			c1.878,3.008,4.101,5.83,6.67,8.4c9.135,9.135,21.135,13.702,33.136,13.702c12,0,24-4.568,33.136-13.702
			c1.485-1.485,2.319-3.498,2.319-5.599c0-2.1-0.834-4.113-2.319-5.598l-14.546-14.547c11.563,1.951,22.342,6.819,31.646,14.365
			c9.386,7.613,16.595,17.6,20.91,28.755H42.825C46.599,196.484,52.573,187.677,60.327,180.516z M307.495,402.881H204.506
			c-42.637,0-82.015-14.221-113.645-38.165h330.28C389.51,388.659,350.132,402.881,307.495,402.881z M439.485,348.883H72.516
			c-12.142-11.903-22.695-25.422-31.287-40.217h429.542C462.179,323.461,451.626,336.98,439.485,348.883z M478.992,292.832H33.009
			c-9.981-21.682-15.968-45.566-17.011-70.705h480.005C494.958,247.265,488.971,271.15,478.992,292.832z"/>
	</g>
</g>
<g>
</g>
<g>
</g>
<g>
</g>
<g>
</g>
<g>
</g>
<g>
</g>
<g>
</g>
<g>
</g>
<g>
</g>
<g>
</g>
<g>
</g>
<g>
</g>
<g>
</g>
<g>
</g>
<g>
</g>
</svg>
